#!OML:ASF F:\VICON\USERDATA\INSTALL\rory3\rory3.ASF
:FULLY-SPECIFIED
:DEGREES
968
root 8.82723 16.8912 28.0594 -328.868 29.2201 364.085
lowerback -23.3641 -6.02955 -1.04413
upperback -17.1735 -7.21311 1.04922
thorax -5.88815 -3.35093 0.432993
lowerneck -13.807 0.597253 -1.59791
upperneck 41.7984 0.691742 2.60319
head 17.7907 0.51161 1.66831
rclavicle 1.86361e-014 -1.41137e-014
rhumerus -29.8278 -71.9399 20.6376
rradius 14.4683
rwrist 50.4539
rhand 2.28248 5.87801
rfingers 7.12502
rthumb 27.7747 -22.0899
lclavicle 1.86361e-014 -1.41137e-014
lhumerus 51.4928 -4.70983 42.8406
lradius 24.2876
lwrist -32.9007
lhand 7.39477 19.8215
lfingers 7.12502
lthumb 32.6514 46.8947
rfemur -55.2578 0.606208 25.716
rtibia 38.4224
rfoot -47.0637 -38.8912
rtoes 45.3631
lfemur -6.88661 -6.6144 -22.9407
ltibia 26.8333
lfoot 5.98257 37.6176
ltoes 10.9763
969
root 8.83403 16.8952 28.0685 -328.949 29.3113 363.749
lowerback -23.1809 -5.91792 -0.611792
upperback -17.2719 -7.14685 1.05398
thorax -6.14482 -3.35494 0.240157
lowerneck -13.637 0.594024 -1.67018
upperneck 41.75 0.588586 2.88194
head 17.7182 0.498252 1.78826
rclavicle -5.55603e-014 3.57812e-015
rhumerus -27.9267 -70.9055 19.0949
rradius 14.558
rwrist 49.0541
rhand 2.22375 5.34188
rfingers 7.12502
rthumb 27.7186 -22.6351
lclavicle -5.55603e-014 3.57812e-015
lhumerus 52.076 -6.43465 38.8008
lradius 25.2887
lwrist -28.3808
lhand 7.37878 20.6838
lfingers 7.12502
lthumb 32.6362 47.7601
rfemur -55.2367 0.0568617 26.4598
rtibia 38.3081
rfoot -46.1605 -38.696
rtoes 44.9669
lfemur -7.22803 -6.74008 -22.6113
ltibia 27.0475
lfoot 3.62268 39.0072
ltoes 16.3912
970
root 8.84019 16.8991 28.0796 -328.987 29.3787 363.474
lowerback -22.8997 -5.83564 -0.222315
upperback -17.57 -7.10556 1.04601
thorax -6.68644 -3.36624 0.0761743
lowerneck -12.9767 0.605584 -1.66122
upperneck 41.6705 0.516703 3.06972
head 17.4982 0.498819 1.84824
rclavicle -2.74323e-014 1.90833e-014
rhumerus -21.8092 -63.7078 12.745
rradius 14.9613
rwrist 41.0762
rhand 1.81363 3.35744
rfingers 7.12502
rthumb 27.3263 -24.682
lclavicle -2.74323e-014 1.90833e-014
lhumerus 52.4737 -7.81235 35.9658
lradius 26.0972
lwrist -25.2918
lhand 7.30782 21.3194
lfingers 7.12502
lthumb 32.5686 48.4096
rfemur -55.1741 -0.188904 26.9491
rtibia 38.1851
rfoot -45.7731 -38.3955
rtoes 44.83
lfemur -7.56953 -6.5875 -22.3308
ltibia 27.2919
lfoot -4.89601 40.0695
ltoes 29.8042
971
root 8.84422 16.9011 28.0863 -329.03 29.4829 363.182
lowerback -22.6383 -5.76387 0.169542
upperback -17.7974 -7.07576 1.07206
thorax -7.13241 -3.38453 -0.0613985
lowerneck -12.5743 0.589404 -1.67647
upperneck 41.5874 0.444226 3.17938
head 17.3466 0.482762 1.87963
rclavicle 5.41191e-014 2.70347e-014
rhumerus -19.4431 -59.0442 10.3658
rradius 15.2276
rwrist 35.8152
rhand 1.49129 3.08678
rfingers 7.12502
rthumb 27.018 -25.0008
lclavicle 5.41191e-014 2.70347e-014
lhumerus 52.9425 -7.56737 36.0749
lradius 26.2816
lwrist -25.5465
lhand 7.52898 21.2566
lfingers 7.12502
lthumb 32.7791 48.3032
rfemur -55.1622 -0.633972 27.5846
rtibia 38.0846
rfoot -44.9639 -38.1673
rtoes 44.3475
lfemur -7.82746 -6.48914 -22.0129
ltibia 27.5017
lfoot -14.4776 38.9408
ltoes 40.2707
972
root 8.84387 16.9001 28.0942 -329.048 29.4209 363.065
lowerback -22.4986 -5.73588 0.24987
upperback -17.8004 -7.05734 1.0995
thorax -7.20954 -3.38211 -0.0591082
lowerneck -12.6624 0.606254 -1.55359
upperneck 41.5795 0.451465 3.12893
head 17.3659 0.497823 1.83631
rclavicle 1.31198e-014 2.127e-014
rhumerus -18.7612 -57.9666 9.98545
rradius 15.3158
rwrist 34.6381
rhand 1.93709 3.74097
rfingers 7.12502
rthumb 27.4444 -24.2798
lclavicle 1.31198e-014 2.127e-014
lhumerus 53.7058 -5.52543 39.3284
lradius 25.6445
lwrist -29.1944
lhand 8.04395 20.2327
lfingers 7.12502
lthumb 33.2688 47.1758
rfemur -55.1478 -0.525527 27.6693
rtibia 38.051
rfoot -44.665 -38.3012
rtoes 44.1544
lfemur -7.94583 -6.19695 -21.9068
ltibia 27.622
lfoot -15.367 38.7695
ltoes 41.158
973
root 8.84139 16.8976 28.101 -329.072 29.2969 363.089
lowerback -22.2879 -5.76847 0.167692
upperback -17.774 -7.0961 1.12332
thorax -7.26628 -3.39389 0.0226449
lowerneck -12.7562 0.624603 -1.48507
upperneck 41.6077 0.43516 3.17574
head 17.4076 0.507559 1.84469
rclavicle -3.45885e-014 8.94531e-016
rhumerus -17.0482 -52.8048 8.12267
rradius 15.8094
rwrist 29.4008
rhand 2.17435 2.87136
rfingers 7.12502
rthumb 27.6713 -25.1132
lclavicle -3.45885e-014 8.94531e-016
lhumerus 54.4325 -8.28549 32.1851
lradius 26.8463
lwrist -21.8362
lhand 7.21413 22.1832
lfingers 7.12502
lthumb 32.4795 49.2918
rfemur -55.1093 -0.227038 27.4482
rtibia 38.0934
rfoot -44.8678 -38.6072
rtoes 44.2535
lfemur -7.95483 -5.882 -21.9523
ltibia 27.6249
lfoot -9.08837 40.1418
ltoes 35.7556
